<svg id="Icons" xmlns="http://www.w3.org/2000/svg" viewBox="0 0 19.5 19.5"><defs><style>.cls-1{fill:#323232;}</style></defs><title>flag</title><path class="cls-1" d="M498.62,5055.06a.76.76,0,0,0,.75-.75v-6.57l5.62-3.28a.76.76,0,0,0,.38-.65.73.73,0,0,0-.38-.65l-6-3.5h0a.34.34,0,0,0-.14,0,.4.4,0,0,0-.15,0h0l-.09,0a.4.4,0,0,0-.15,0,.31.31,0,0,0-.13.06l-.12.08a.52.52,0,0,0-.1.11l-.06.07s0,0,0,0a.57.57,0,0,0,0,.14.32.32,0,0,0,0,.14s0,0,0,.05v14A.75.75,0,0,0,498.62,5055.06Zm.75-9.06v-4.39l3.76,2.2Z" transform="translate(-488.87 -5039.56)"/><path class="cls-1" d="M501.72,5050.77a.75.75,0,0,0-.21,1.49c3.35.46,5.36,1.66,5.36,2.55,0,1.12-3.22,2.75-8.25,2.75s-8.25-1.63-8.25-2.75c0-.89,2-2.09,5.35-2.55a.75.75,0,1,0-.21-1.49c-4.1.57-6.64,2.11-6.64,4,0,2.76,5,4.25,9.75,4.25s9.75-1.49,9.75-4.25C508.37,5052.88,505.82,5051.34,501.72,5050.77Z" transform="translate(-488.87 -5039.56)"/></svg>